<?xml version="1.0" encoding="UTF-8"?>
<svg version="1.1" xmlns="http://www.w3.org/2000/svg" width="492" height="75">
<path d="M0 0 C1.24394531 -0.03738281 2.48789062 -0.07476562 3.76953125 -0.11328125 C7.89211349 0.40027471 8.58886986 1.17385266 11.1875 4.3125 C12.61621094 7.203125 12.61621094 7.203125 13.921875 10.5625 C14.16123779 11.16939667 14.40060059 11.77629333 14.6472168 12.40158081 C15.42039728 14.36822882 16.17896006 16.34016472 16.9375 18.3125 C17.46673086 19.66593549 17.99701042 21.01896135 18.52832031 22.37158203 C19.58873737 25.07434641 20.64411322 27.77898929 21.6953125 30.48535156 C23.73733178 35.73490081 25.8365172 40.96132962 27.9375 46.1875 C28.57844407 47.78893484 29.2191065 49.39048245 29.859375 50.9921875 C30.29765625 52.08789062 30.7359375 53.18359375 31.1875 54.3125 C32.79524661 50.68907809 34.39838877 47.06363787 36 43.4375 C36.49048828 42.32810059 36.98097656 41.21870117 37.48632812 40.07568359 C40.13446986 34.06170311 42.7364826 28.03514985 45.26171875 21.96875 C45.75244873 20.7916748 46.24317871 19.61459961 46.7487793 18.40185547 C47.69546768 16.1222851 48.63591358 13.84011054 49.56958008 11.55517578 C50.00036865 10.5186084 50.43115723 9.48204102 50.875 8.4140625 C51.25011719 7.49963379 51.62523437 6.58520508 52.01171875 5.64306641 C53.18171889 3.32395899 54.14564277 1.90422712 56.1875 0.3125 C59.25390625 -0.0859375 59.25390625 -0.0859375 62.75 -0.0625 C63.90628906 -0.07023438 65.06257813 -0.07796875 66.25390625 -0.0859375 C67.22199219 0.04554687 68.19007812 0.17703125 69.1875 0.3125 C71.59066291 3.91724436 71.43062609 5.51939591 71.41455078 9.8034668 C71.41484283 10.4573941 71.41513489 11.11132141 71.41543579 11.7850647 C71.4140437 13.94408489 71.39848857 16.10275893 71.3828125 18.26171875 C71.37908193 19.75958569 71.37623517 21.25745507 71.37423706 22.75532532 C71.36660403 26.69600167 71.34695845 30.63653038 71.3248291 34.57714844 C71.30436353 38.59893802 71.29523382 42.62075147 71.28515625 46.64257812 C71.26371218 54.5326198 71.22958029 62.42254153 71.1875 70.3125 C66.22099218 72.39150327 65.54194029 72.45427612 60.1875 70.3125 C59.8575 52.1625 59.5275 34.0125 59.1875 15.3125 C54.60875 26.388125 54.60875 26.388125 49.9375 37.6875 C48.98198242 39.9979834 48.02646484 42.3084668 47.04199219 44.68896484 C46.27274169 46.55043723 45.50353323 48.41192699 44.734375 50.2734375 C44.34459473 51.21550049 43.95481445 52.15756348 43.55322266 53.12817383 C43.1679541 54.06089111 42.78268555 54.9936084 42.38574219 55.95458984 C42.01791626 56.84007507 41.65009033 57.7255603 41.27111816 58.63787842 C40.52705615 60.47439647 39.81089553 62.3223909 39.11853027 64.17901611 C38.77809692 65.08496521 38.43766357 65.99091431 38.08691406 66.92431641 C37.79077209 67.73832916 37.49463013 68.55234192 37.18951416 69.39102173 C36.1875 71.3125 36.1875 71.3125 33.25 72.5625 C30.05348807 72.30156025 28.03260856 71.77100702 25.1875 70.3125 C23.92979431 68.39294434 23.92979431 68.39294434 23.03100586 66.02148438 C22.68392075 65.13295776 22.33683563 64.24443115 21.97923279 63.32897949 C21.62385941 62.36447876 21.26848602 61.39997803 20.90234375 60.40625 C20.51937637 59.41177856 20.136409 58.41730713 19.74183655 57.3927002 C18.51889365 54.20560571 17.32161305 51.00956143 16.125 47.8125 C15.31615201 45.68945614 14.50562347 43.56705173 13.69335938 41.4453125 C11.88587327 36.71870462 10.09478763 31.98623949 8.31822205 27.2479248 C6.65086192 22.91935415 4.91023294 18.61933236 3.1875 14.3125 C2.8575 33.1225 2.5275 51.9325 2.1875 71.3125 C-2.16194269 72.18238854 -3.78378525 72.34845522 -7.8125 71.3125 C-7.83562545 62.20290835 -7.85341612 53.09332674 -7.86431217 43.9837122 C-7.86954056 39.75418629 -7.8766374 35.5246804 -7.88793945 31.29516602 C-7.89876991 27.21681457 -7.90477717 23.13848243 -7.90737724 19.06011772 C-7.90923121 17.50072361 -7.91285127 15.9413306 -7.91823006 14.38194466 C-7.92544262 12.20520838 -7.92649085 10.02855286 -7.92602539 7.85180664 C-7.928246 6.61048477 -7.93046661 5.3691629 -7.93275452 4.09022522 C-7.70571282 -1.15414705 -4.61105295 0.09022658 0 0 Z " fill="#0078FF" transform="translate(30.8125,2.6875)"/>
<path d="M0 0 C3.3 0 6.6 0 10 0 C10 24.42 10 48.84 10 74 C5 75 5 75 2.75 74.3125 C1 73 1 73 0.25 70.875 C0.1675 70.25625 0.085 69.6375 0 69 C-0.7425 69.61875 -1.485 70.2375 -2.25 70.875 C-8.78295479 75.92319234 -14.89501124 75.76337685 -23 75 C-28.75572684 72.32060992 -32.33394215 68.08225127 -34.75 62.25 C-37.72093433 52.43442692 -37.24956404 40.57557135 -33.203125 31.171875 C-30.53799967 26.36080461 -26.83511907 23.44824788 -22 21 C-18.6953125 20.56640625 -18.6953125 20.56640625 -15.125 20.5625 C-13.95195312 20.54316406 -12.77890625 20.52382813 -11.5703125 20.50390625 C-8 21 -8 21 -1 25 C-0.67 16.75 -0.34 8.5 0 0 Z M-23 35 C-26.94187087 43.39442945 -26.85581377 51.10113911 -23.96875 59.7890625 C-22.54121531 63.04706505 -21.19786988 64.43659695 -18 66 C-13.13425915 66.61787185 -11.0702239 66.57627441 -6.75 64.25 C-5.8425 63.5075 -4.935 62.765 -4 62 C-2.94232422 61.24783203 -2.94232422 61.24783203 -1.86328125 60.48046875 C1.04965055 56.60266645 0.62011095 52.78320907 0.5625 48.0625 C0.58634766 47.16853516 0.61019531 46.27457031 0.63476562 45.35351562 C0.62448946 40.73951879 0.54585214 38.67857947 -2.42578125 34.984375 C-3.27527344 34.32953125 -4.12476563 33.6746875 -5 33 C-5.5775 32.401875 -6.155 31.80375 -6.75 31.1875 C-13.01998418 27.87834168 -18.99267004 29.22473035 -23 35 Z " fill="#0078FF" transform="translate(207,0)"/>
<path d="M0 0 C0.68094727 -0.0100708 1.36189453 -0.0201416 2.06347656 -0.03051758 C7.56460339 0.06384482 11.5670013 1.40074046 15.703125 5.05078125 C21.30940855 11.75059813 22.09857206 17.18764891 22.23828125 25.828125 C22.11839844 26.68921875 21.99851563 27.5503125 21.875 28.4375 C18.23195136 30.86619909 15.56777661 30.69425675 11.36328125 30.6328125 C10.63505661 30.6299826 9.90683197 30.62715271 9.15653992 30.62423706 C6.83335863 30.61305257 4.51056453 30.58795166 2.1875 30.5625 C0.6113337 30.55246794 -0.96483865 30.54334248 -2.54101562 30.53515625 C-6.40249267 30.51311896 -10.26368071 30.47860141 -14.125 30.4375 C-13.67375263 32.05277758 -13.21373486 33.66560685 -12.75 35.27734375 C-12.49476562 36.17573975 -12.23953125 37.07413574 -11.9765625 37.99975586 C-10.93482105 40.98191996 -9.6880095 42.59533693 -7.125 44.4375 C-3.82512125 45.53745958 -1.28467713 45.60497591 2.1875 45.625 C3.29738281 45.63917969 4.40726563 45.65335938 5.55078125 45.66796875 C8.98113592 45.43014158 11.6556171 44.59866356 14.875 43.4375 C17.75 43.3125 17.75 43.3125 19.875 43.4375 C19.875 45.7475 19.875 48.0575 19.875 50.4375 C13.30933952 53.8695498 8.41211434 54.66069713 1.125 54.75 C0.3515625 54.77900391 -0.421875 54.80800781 -1.21875 54.83789062 C-7.95451466 54.91135115 -12.98727771 53.09063197 -18.1484375 48.7265625 C-18.59445313 48.17742187 -19.04046875 47.62828125 -19.5 47.0625 C-20.19222656 46.24652344 -20.19222656 46.24652344 -20.8984375 45.4140625 C-24.30663571 39.92187047 -24.51232323 34.39629067 -24.5 28.125 C-24.49838867 27.27921387 -24.49677734 26.43342773 -24.49511719 25.56201172 C-24.37455472 19.44523961 -23.63188585 14.58823859 -20.125 9.4375 C-19.5475 8.509375 -18.97 7.58125 -18.375 6.625 C-12.7081832 1.11559477 -7.70228793 0.07463457 0 0 Z M-10.125 11.4375 C-13.05339728 15.30716784 -13.27659822 17.34708933 -14.125 22.4375 C-5.545 22.4375 3.035 22.4375 11.875 22.4375 C11.17653385 14.65305754 11.17653385 14.65305754 6.875 9.4375 C1.64029625 6.82014812 -5.77667292 7.61624287 -10.125 11.4375 Z " fill="#0078FF" transform="translate(139.125,20.5625)"/>
<path d="M0 0 C3.3 0 6.6 0 10 0 C10.01458252 1.09465576 10.02916504 2.18931152 10.04418945 3.31713867 C10.10228739 7.38956905 10.17951927 11.46145315 10.26245117 15.53344727 C10.29564654 17.29377355 10.32369524 19.05420488 10.34643555 20.81469727 C10.3800812 23.34957525 10.4324006 25.88349523 10.48828125 28.41796875 C10.49467117 29.20149216 10.5010611 29.98501556 10.50764465 30.7922821 C10.62926824 35.34154881 11.1597268 38.38752072 14 42 C17.32988291 43.66494146 20.42752271 43.69057437 24 43 C27.67442793 41.40149403 29.86874681 39.39317134 32 36 C33.47509513 30.02036826 33.07435815 23.67462202 33 17.5625 C33.00809863 15.86000497 33.01978207 14.157523 33.03515625 12.45507812 C33.06488894 8.30238667 33.0457123 4.15251846 33 0 C36.3 0 39.6 0 43 0 C43 17.16 43 34.32 43 52 C37.375 53.125 37.375 53.125 34 52 C33.67 50.35 33.34 48.7 33 47 C31.88625 47.928125 31.88625 47.928125 30.75 48.875 C24.44111261 53.75004935 18.83750764 53.74551902 11 53 C7.43082483 52.02770745 5.01912207 50.46581079 2.85186768 47.34863281 C-0.06609997 41.878038 -0.53871817 37.38698098 -0.390625 31.25 C-0.38496521 30.35128174 -0.37930542 29.45256348 -0.37347412 28.52661133 C-0.35125919 25.68384292 -0.30109249 22.84238105 -0.25 20 C-0.22991569 18.06121625 -0.21166832 16.12241254 -0.1953125 14.18359375 C-0.15144346 9.45523331 -0.08252133 4.7278374 0 0 Z " fill="#000000" transform="translate(346,22)"/>
<path d="M0 0 C7.52969652 -0.02526648 15.0593822 -0.04283141 22.58911133 -0.05493164 C25.15291757 -0.0599737 27.71672091 -0.06680714 30.28051758 -0.07543945 C33.95655021 -0.08751064 37.63254498 -0.09322942 41.30859375 -0.09765625 C42.46274277 -0.10281754 43.61689178 -0.10797882 44.80601501 -0.11329651 C46.3975515 -0.11340981 46.3975515 -0.11340981 48.02124023 -0.11352539 C48.96055893 -0.115746 49.89987762 -0.11796661 50.86766052 -0.12025452 C53 0 53 0 54 1 C54.1875 3.9375 54.1875 3.9375 54 7 C53.34 7.66 52.68 8.32 52 9 C45.4 9 38.8 9 32 9 C32 29.46 32 49.92 32 71 C26 72 26 72 21 71 C21 50.54 21 30.08 21 9 C14.4 9 7.8 9 1 9 C-1 6 -1 6 -0.625 2.8125 C-0.41875 1.884375 -0.2125 0.95625 0 0 Z " fill="#000000" transform="translate(252,3)"/>
<path d="M0 0 C1.29550781 -0.02578125 2.59101563 -0.0515625 3.92578125 -0.078125 C7.93432621 0.27153001 10.32226089 1.0742865 13.6875 3.25 C14.75 6.25 14.75 6.25 14.6875 9.25 C13.25 11.125 13.25 11.125 11.6875 12.25 C10.90375 11.755 10.12 11.26 9.3125 10.75 C4.77720991 8.87332824 0.5469211 8.39688304 -4.3125 9.25 C-6.15615849 10.49417031 -6.15615849 10.49417031 -7.3125 12.25 C-7.71223055 15.27643583 -7.71223055 15.27643583 -6.3125 18.25 C-3.85610013 20.04457192 -1.11017784 21.08620253 1.6875 22.25 C12.71924112 27.37835798 12.71924112 27.37835798 15.6875 31.25 C17.43888012 36.50414036 17.67040651 41.99824575 15.1875 47.0625 C12.45297498 51.08936904 9.40902457 53.09370827 4.6875 54.25 C1.94362576 54.49389993 -0.69264895 54.65527022 -3.4375 54.6875 C-4.11844727 54.69773193 -4.79939453 54.70796387 -5.50097656 54.71850586 C-11.124707 54.62067211 -15.31066236 53.25183764 -19.3125 49.25 C-19.4375 45.625 -19.4375 45.625 -19.3125 42.25 C-16.07663532 41.96448253 -14.50526989 42.1424075 -11.625 43.75 C-7.23027486 45.74006422 -3.07576132 46.05173705 1.6875 45.25 C3.9575515 43.82235563 3.9575515 43.82235563 5.6875 42.25 C5.84753916 38.87801455 5.84753916 38.87801455 4.6875 35.25 C2.18582791 33.32016055 -0.62379448 32.30226515 -3.5625 31.1875 C-9.73129414 28.76887498 -13.51028502 26.79858117 -17.3125 21.25 C-18.88090852 16.54477445 -18.86145539 12.72351184 -17.125 8.0625 C-12.67989059 1.16491643 -7.82885167 0.09292406 0 0 Z " fill="#000000" transform="translate(421.3125,20.75)"/>
<path d="M0 0 C3.3 0 6.6 0 10 0 C10 4.62 10 9.24 10 14 C13.4340625 13.9690625 13.4340625 13.9690625 16.9375 13.9375 C19.29166332 13.91629132 21.64686445 13.92728259 24 14 C25 15 25 15 25.1875 17.9375 C25 21 25 21 23 23 C19.9609375 23.1953125 19.9609375 23.1953125 16.375 23.125 C15.18648438 23.10695313 13.99796875 23.08890625 12.7734375 23.0703125 C11.85820312 23.04710938 10.94296875 23.02390625 10 23 C10.09391833 27.03887005 10.20009492 31.07721776 10.31738281 35.11547852 C10.35554288 36.48778581 10.39041796 37.86018871 10.421875 39.23266602 C10.46780682 41.2113229 10.52673637 43.18966442 10.5859375 45.16796875 C10.63306885 46.95110474 10.63306885 46.95110474 10.68115234 48.77026367 C10.9899711 51.89841328 11.6706912 54.17113759 13 57 C13.78246094 56.98839844 14.56492187 56.97679687 15.37109375 56.96484375 C16.38300781 56.95582031 17.39492188 56.94679687 18.4375 56.9375 C19.44683594 56.92589844 20.45617187 56.91429687 21.49609375 56.90234375 C24 57 24 57 25 58 C25.46013793 63.29158621 25.46013793 63.29158621 23.9140625 65.671875 C21.02863119 67.67401101 18.59475798 67.39700692 15.125 67.375 C13.91070312 67.38273437 12.69640625 67.39046875 11.4453125 67.3984375 C7.66097623 66.96079317 5.89085703 66.46780478 3 64 C0.32522021 58.8674668 -0.41986292 54.67770137 -0.29296875 48.87890625 C-0.28872391 48.13414536 -0.28447906 47.38938446 -0.28010559 46.62205505 C-0.26345724 44.26848527 -0.22583375 41.91580621 -0.1875 39.5625 C-0.17243515 37.95639267 -0.15874991 36.35027177 -0.14648438 34.74414062 C-0.11359952 30.82908953 -0.06191626 26.91469521 0 23 C-1.670625 23.061875 -1.670625 23.061875 -3.375 23.125 C-7 23 -7 23 -9 21 C-8.625 17.375 -8.625 17.375 -8 14 C-5.36 14 -2.72 14 0 14 C0 9.38 0 4.76 0 0 Z " fill="#000000" transform="translate(450,8)"/>
<path d="M0 0 C0.66 0.33 1.32 0.66 2 1 C2 3.97 2 6.94 2 10 C-2 11 -2 11 -5.8125 10.5625 C-9.42137502 10.57634157 -11.1240029 11.41162186 -13.703125 13.93359375 C-18.98953628 20.31989566 -17.99652349 28.65068441 -17.9375 36.5 C-17.95062514 38.10159142 -17.96687307 39.70316046 -17.98632812 41.3046875 C-18.02695029 45.20379745 -18.02511727 49.10078194 -18 53 C-21.94476647 53.80688405 -23.99998285 54.00000429 -28 53 C-28 35.84 -28 18.68 -28 1 C-25.03 1 -22.06 1 -19 1 C-18.67 2.65 -18.34 4.3 -18 6 C-17.62230469 5.566875 -17.24460937 5.13375 -16.85546875 4.6875 C-11.68376269 -0.54476468 -7.16220707 -0.93833227 0 0 Z " fill="#000000" transform="translate(335,21)"/>
<path d="M0 0 C3.3 0 6.6 0 10 0 C10 17.16 10 34.32 10 52 C4 53 4 53 0 52 C0 34.84 0 17.68 0 0 Z " fill="#0078FF" transform="translate(233,22)"/>
<path d="M0 0 C1.37478516 0.01740234 1.37478516 0.01740234 2.77734375 0.03515625 C3.69644531 0.04417969 4.61554688 0.05320313 5.5625 0.0625 C6.27277344 0.07410156 6.98304688 0.08570312 7.71484375 0.09765625 C9.20781587 3.08360049 8.83239603 5.80619249 8.71484375 9.09765625 C8.38484375 9.75765625 8.05484375 10.41765625 7.71484375 11.09765625 C3.34597663 12.28916546 0.75850174 12.11948525 -3.28515625 10.09765625 C-3.31204841 8.61858733 -3.33150246 7.13938142 -3.34765625 5.66015625 C-3.35925781 4.83644531 -3.37085938 4.01273437 -3.3828125 3.1640625 C-3.24381204 0.22281267 -2.9444484 0.12583113 0 0 Z " fill="#0078FF" transform="translate(235.28515625,0.90234375)"/>
</svg>
